<?xml version="1.0" standalone="no"?>
<!DOCTYPE svg PUBLIC "-//W3C//DTD SVG 20010904//EN"
 "http://www.w3.org/TR/2001/REC-SVG-20010904/DTD/svg10.dtd">
<svg version="1.0" xmlns="http://www.w3.org/2000/svg"
 width="299.000000pt" height="299.000000pt" viewBox="0 0 299.000000 299.000000"
 preserveAspectRatio="xMidYMid meet">
<metadata>
Created by potrace 1.14, written by Peter Selinger 2001-2017
</metadata>
<g transform="translate(0.000000,299.000000) scale(0.100000,-0.100000)"
fill="#000000" stroke="none">
<path d="M0 1495 l0 -1495 1495 0 1495 0 0 1495 0 1495 -1495 0 -1495 0 0
-1495z m1777 1216 c160 -63 288 -177 361 -322 64 -126 73 -170 79 -375 l5
-182 40 -5 c109 -15 181 -158 134 -270 -19 -47 -90 -104 -137 -112 l-39 -7 0
-254 0 -253 -32 -37 -32 -36 -11 46 c-11 43 -48 96 -67 96 -4 0 -31 15 -60 32
-29 18 -125 74 -213 125 l-160 92 -13 -46 c-18 -63 -40 -93 -79 -109 -97 -41
-180 7 -208 119 -4 15 -9 27 -11 27 -5 0 -271 -153 -382 -219 -29 -17 -56 -31
-60 -31 -12 0 -43 -58 -46 -88 -2 -15 -4 -31 -5 -37 -3 -21 -71 68 -71 94 -1
14 0 128 0 252 l1 227 -34 6 c-53 10 -115 56 -137 102 -38 78 -20 185 42 240
19 18 59 35 116 50 9 3 12 40 12 143 0 161 23 300 64 381 74 147 180 257 311
320 125 61 174 70 375 67 171 -3 177 -4 257 -36z m490 -1307 c-3 -3 -12 -4
-19 -1 -8 3 -5 6 6 6 11 1 17 -2 13 -5z m-623 -445 c-7 -11 -304 -12 -304 -1
0 4 35 28 77 53 l77 45 78 -44 c43 -25 75 -48 72 -53z m-461 -139 c-5 -40 -2
-54 12 -70 17 -19 32 -20 306 -20 l289 0 16 25 c12 19 15 36 10 70 -4 25 -5
45 -2 45 18 0 106 -66 106 -80 0 -31 -52 -121 -89 -151 -55 -47 -138 -89 -188
-96 -26 -3 -39 -9 -32 -13 7 -5 1 -7 -14 -7 -15 1 -27 4 -28 7 0 3 -2 20 -3
38 -4 47 -45 87 -81 78 -40 -10 -76 -53 -70 -85 2 -14 0 -33 -5 -41 -6 -9 -10
-10 -10 -3 0 6 -26 19 -57 28 -75 22 -164 76 -201 123 -32 39 -62 104 -62 131
0 14 81 70 102 71 4 0 4 -23 1 -50z m-74 -145 c0 -5 -4 -3 -9 5 -5 8 -9 22 -9
30 0 16 17 -16 18 -35z m-29 0 c0 -5 -5 -3 -10 5 -5 8 -10 20 -10 25 0 6 5 3
10 -5 5 -8 10 -19 10 -25z m829 -48 c-2 -1 -13 -9 -24 -17 -19 -14 -19 -14 -6
3 7 9 18 17 24 17 6 0 8 -1 6 -3z m-406 -14 c-7 -2 -19 -2 -25 0 -7 3 -2 5 12
5 14 0 19 -2 13 -5z"/>
<path d="M1088 2122 c-175 -130 -258 -203 -258 -229 0 -26 47 -73 73 -73 18 0
102 63 290 216 24 20 21 47 -9 83 -31 38 -48 38 -96 3z"/>
<path d="M1809 2121 c-28 -29 -36 -55 -21 -77 4 -6 39 -35 77 -64 39 -30 100
-78 137 -107 37 -29 75 -53 86 -53 24 0 72 51 72 77 0 20 -31 49 -131 123 -18
14 -49 39 -69 56 -60 52 -92 74 -107 74 -8 0 -28 -13 -44 -29z"/>
<path d="M1119 1841 c-52 -42 -17 -131 52 -131 64 0 93 84 46 128 -29 27 -67
28 -98 3z"/>
<path d="M1772 1840 c-47 -44 -16 -130 47 -130 45 0 75 30 75 75 0 66 -74 99
-122 55z"/>
</g>
</svg>
